REM DIRINDEX 1\2\6,1\2\7,1\2\8,1\2\9,1\3\10,1\3\11,1\4\12,1\4\13,1\4\14,1\5\15,1\5\16,1\5\17
REM DIRNAME cjc020,folder01,folder02,folder03,folder04,folder05,folder06,folder07,folder08,folder09,folder10,folder11,folder12,folder13,folder14,folder15,folder16
TITLE ""
FILE "1900_3_058 sec10_0951_0967.mp3" MP3
  TRACK 01 AUDIO
    TITLE "0:"
    INDEX 01 00:00:00
  TRACK 02 AUDIO
    TITLE "17:cjc020_7878"
    INDEX 01 00:00:13
  TRACK 03 AUDIO
    TITLE "0:"
    INDEX 01 00:01:30
  TRACK 04 AUDIO
    TITLE "16:cjc020_7879"
    INDEX 01 00:01:38
  TRACK 05 AUDIO
    TITLE "0:"
    INDEX 01 00:02:57
  TRACK 06 AUDIO
    TITLE "17:cjc020_7880"
    INDEX 01 00:03:41
  TRACK 07 AUDIO
    TITLE "0:"
    INDEX 01 00:05:40
  TRACK 08 AUDIO
    TITLE "16:cjc020_7881"
    INDEX 01 00:05:46
  TRACK 09 AUDIO
    TITLE "0:"
    INDEX 01 00:06:51
  TRACK 10 AUDIO
    TITLE "17:cjc020_7882"
    INDEX 01 00:07:37
  TRACK 11 AUDIO
    TITLE "0:"
    INDEX 01 00:08:36
  TRACK 12 AUDIO
    TITLE "16:cjc020_7883"
    INDEX 01 00:08:40
  TRACK 13 AUDIO
    TITLE "0:"
    INDEX 01 00:09:51
  TRACK 14 AUDIO
    TITLE "17:cjc020_7884"
    INDEX 01 00:10:35
  TRACK 15 AUDIO
    TITLE "0:"
    INDEX 01 00:12:71
  TRACK 16 AUDIO
    TITLE "16:cjc020_7885"
    INDEX 01 00:13:02
  TRACK 17 AUDIO
    TITLE "0:"
    INDEX 01 00:14:25
  TRACK 18 AUDIO
    TITLE "17:cjc020_7886"
    INDEX 01 00:15:07
  TRACK 19 AUDIO
    TITLE "0:"
    INDEX 01 00:16:12
  TRACK 20 AUDIO
    TITLE "16:cjc020_7887"
    INDEX 01 00:16:16
  TRACK 21 AUDIO
    TITLE "0:"
    INDEX 01 00:17:25
  TRACK 22 AUDIO
    TITLE "17:cjc020_7888"
    INDEX 01 00:18:09
  TRACK 23 AUDIO
    TITLE "0:"
    INDEX 01 00:19:18
  TRACK 24 AUDIO
    TITLE "16:cjc020_7889"
    INDEX 01 00:19:26
  TRACK 25 AUDIO
    TITLE "0:"
    INDEX 01 00:20:34
  TRACK 26 AUDIO
    TITLE "17:cjc020_7890"
    INDEX 01 00:21:19
  TRACK 27 AUDIO
    TITLE "0:"
    INDEX 01 00:23:40
  TRACK 28 AUDIO
    TITLE "16:cjc020_7891"
    INDEX 01 00:23:51
  TRACK 29 AUDIO
    TITLE "0:"
    INDEX 01 00:24:55
  TRACK 30 AUDIO
    TITLE "17:cjc020_7892"
    INDEX 01 00:25:41
  TRACK 31 AUDIO
    TITLE "0:"
    INDEX 01 00:28:04
  TRACK 32 AUDIO
    TITLE "16:cjc020_7893"
    INDEX 01 00:28:10
  TRACK 33 AUDIO
    TITLE "0:"
    INDEX 01 00:29:40
  TRACK 34 AUDIO
    TITLE "17:cjc020_7894"
    INDEX 01 00:30:20
  TRACK 35 AUDIO
    TITLE "0:"
    INDEX 01 00:31:16
  TRACK 36 AUDIO
    TITLE "16:cjc020_7895"
    INDEX 01 00:31:22
  TRACK 37 AUDIO
    TITLE "0:"
    INDEX 01 00:32:25
  TRACK 38 AUDIO
    TITLE "17:cjc020_7896"
    INDEX 01 00:33:07
  TRACK 39 AUDIO
    TITLE "0:"
    INDEX 01 00:35:33
  TRACK 40 AUDIO
    TITLE "16:cjc020_7897"
    INDEX 01 00:35:39
  TRACK 41 AUDIO
    TITLE "0:"
    INDEX 01 00:36:58
  TRACK 42 AUDIO
    TITLE "17:cjc020_7898"
    INDEX 01 00:37:42
  TRACK 43 AUDIO
    TITLE "0:"
    INDEX 01 00:38:41
  TRACK 44 AUDIO
    TITLE "16:cjc020_7899"
    INDEX 01 00:38:45
  TRACK 45 AUDIO
    TITLE "0:"
    INDEX 01 00:39:66
  TRACK 46 AUDIO
    TITLE "17:cjc020_7900"
    INDEX 01 00:40:54
  TRACK 47 AUDIO
    TITLE "0:"
    INDEX 01 00:41:42
  TRACK 48 AUDIO
    TITLE "16:cjc020_7901"
    INDEX 01 00:41:55
  TRACK 49 AUDIO
    TITLE "0:"
    INDEX 01 00:42:61
  TRACK 50 AUDIO
    TITLE "17:cjc020_7902"
    INDEX 01 00:43:44
  TRACK 51 AUDIO
    TITLE "0:"
    INDEX 01 00:44:34
  TRACK 52 AUDIO
    TITLE "16:cjc020_7903"
    INDEX 01 00:44:42
  TRACK 53 AUDIO
    TITLE "0:"
    INDEX 01 00:45:43
  TRACK 54 AUDIO
    TITLE "17:cjc020_7904"
    INDEX 01 00:46:31
  TRACK 55 AUDIO
    TITLE "0:"
    INDEX 01 00:47:66
  TRACK 56 AUDIO
    TITLE "16:cjc020_7905"
    INDEX 01 00:47:74
  TRACK 57 AUDIO
    TITLE "0:"
    INDEX 01 00:49:16
  TRACK 58 AUDIO
    TITLE "17:cjc020_7906"
    INDEX 01 00:50:01
  TRACK 59 AUDIO
    TITLE "0:"
    INDEX 01 00:50:70
  TRACK 60 AUDIO
    TITLE "16:cjc020_7907"
    INDEX 01 00:51:07
  TRACK 61 AUDIO
    TITLE "0:"
    INDEX 01 00:52:28
  TRACK 62 AUDIO
    TITLE "17:cjc020_7908"
    INDEX 01 00:53:11
  TRACK 63 AUDIO
    TITLE "0:"
    INDEX 01 00:54:72
  TRACK 64 AUDIO
    TITLE "16:cjc020_7909"
    INDEX 01 00:55:03
  TRACK 65 AUDIO
    TITLE "0:"
    INDEX 01 00:56:06
  TRACK 66 AUDIO
    TITLE "17:cjc020_7910"
    INDEX 01 00:56:69
  TRACK 67 AUDIO
    TITLE "0:"
    INDEX 01 00:59:02
  TRACK 68 AUDIO
    TITLE "16:cjc020_7911"
    INDEX 01 00:59:14
  TRACK 69 AUDIO
    TITLE "0:"
    INDEX 01 01:00:19
